<svg width="0" height="0" class="hidden">
  <symbol xmlns="http://www.w3.org/2000/svg" viewBox="0 0 32 32" id="fb">
    <path d="M13.04 29.333L13 17.666H8V12.666H13V9.33302C13 4.84002 15.787 2.66602 19.8 2.66602C21.72 2.66602 23.373 2.79902 23.853 2.86602V7.57302H21.066C18.893 7.57302 18.466 8.61302 18.466 10.133V12.666H24.666L22.999 17.666H18.466V29.333H13.039H13.04Z"></path>
  </symbol>
  <symbol xmlns="http://www.w3.org/2000/svg" viewBox="0 0 32 32" id="tw">
    <path d="M29.333 7.83998C28.333 8.33298 27.333 8.50698 26.16 8.66698C27.333 7.99998 28.16 6.99998 28.493 5.66698C27.488 6.27498 26.317 6.73798 25.07 6.98898L25 7.00098C23.969 5.98698 22.56 5.35498 21.004 5.33398H21C18.16 5.33398 15.667 7.84098 15.667 10.841C15.667 11.334 15.667 11.668 15.84 12.001C11.262 11.823 7.22097 9.66398 4.52897 6.36198L4.50697 6.33398C4.08197 7.05998 3.83097 7.93198 3.83097 8.86298C3.83097 8.97198 3.83397 9.08098 3.84097 9.18898L3.83997 9.17398C3.87397 11.052 4.84897 12.695 6.31297 13.655L6.33397 13.668C5.49397 13.668 4.66697 13.335 3.82697 13.001C3.82697 15.668 5.66697 17.841 8.15997 18.334C7.66697 18.507 7.15997 18.507 6.66697 18.507C6.33397 18.507 5.99997 18.507 5.66697 18.334C6.33397 20.507 8.33397 22.174 10.84 22.174C9.03997 23.629 6.72397 24.509 4.20297 24.509C4.13197 24.509 4.06097 24.508 3.98997 24.507H4.00097H2.66797C5.03297 26.016 7.90397 26.936 10.984 27H11.001C21.001 27 26.508 18.667 26.508 11.493V10.826C27.655 10.036 28.601 9.03898 29.311 7.88198L29.335 7.83998H29.333Z"></path>
  </symbol>
  <symbol xmlns="http://www.w3.org/2000/svg" viewBox="0 0 32 32" id="pint">
    <path d="M16 2.66699C8.65699 2.69399 2.71399 8.65299 2.71399 16C2.71399 21.599 6.16599 26.393 11.057 28.368L11.146 28.4C11.013 27.347 10.919 25.733 11.186 24.573L12.746 17.946C12.746 17.946 12.346 17.146 12.346 15.973C12.346 14.12 13.426 12.746 14.773 12.746C15.906 12.746 16.466 13.599 16.466 14.613C16.466 15.76 15.733 17.466 15.346 19.053C15.026 20.386 16.013 21.466 17.333 21.466C19.706 21.466 21.52 18.973 21.52 15.373C21.52 12.173 19.227 9.95999 15.947 9.95999C15.871 9.95599 15.783 9.95399 15.694 9.95399C12.505 9.95399 9.92099 12.539 9.92099 15.727C9.92099 15.729 9.92099 15.731 9.92099 15.733C9.92099 16.88 10.361 18.106 10.908 18.773C11.015 18.906 11.028 19.026 10.988 19.16L10.615 20.667C10.562 20.907 10.415 20.974 10.175 20.854C8.49499 20.067 7.45499 17.654 7.45499 15.681C7.45499 11.481 10.522 7.62799 16.282 7.62799C20.895 7.62799 24.509 10.908 24.509 15.321C24.509 19.921 21.602 23.614 17.576 23.614C16.243 23.614 14.963 22.907 14.536 22.081L13.696 25.241C13.265 26.578 12.704 27.739 12.008 28.804L12.042 28.748C13.212 29.12 14.558 29.335 15.953 29.335C23.317 29.335 29.286 23.365 29.286 16.002C29.286 8.65499 23.344 2.69599 16.004 2.66899H16.001L16 2.66699Z"></path>
  </symbol>
  <symbol xmlns="http://www.w3.org/2000/svg" viewBox="0 0 50 50" id="logo">
	<path d="M20.4506 5.25918C19.0919 5.69691 17.9456 6.47652 17.6601 7.15634L17.5398 7.4419L15.6561 7.43301L15.4116 6.93006C15.2253 6.54668 15.063 6.3708 14.7263 6.18701L14.2864 5.94591H11.1062C6.93498 5.94591 6.40895 6.15341 6.40895 7.80355V8.26796L5.69955 8.61478C3.08441 9.8924 1.03538 12.416 0.225789 15.3546L0.000346207 16.1748V26.2584C0.000346207 37.2698 -0.0327188 36.5584 0.547422 38.1166C1.84798 41.6086 4.86291 44.1352 8.54916 44.8258C9.78859 45.0581 40.2114 45.0581 41.4508 44.8258C45.1371 44.1362 48.152 41.6096 49.4526 38.1166C50.0327 36.5584 49.9997 37.2698 49.9997 26.2584V16.1748L49.7832 15.4031C48.649 11.3647 45.7433 8.61182 41.6342 7.67905C41.02 7.53972 40.2134 7.50514 36.6765 7.46858L32.4532 7.42412L32.3369 7.14745C32.0504 6.46565 30.8209 5.64553 29.4663 5.23349C28.3992 4.9084 21.4756 4.92816 20.4506 5.25918ZM40.0601 10.8222C43.053 11.1256 45.3856 12.9526 46.3976 15.7874L46.6731 16.5591L46.7012 25.871C46.7332 36.5189 46.7653 36.0218 45.9236 37.7342C44.9758 39.662 43.064 41.1205 40.9288 41.5453C39.7856 41.7726 10.2114 41.7726 9.07118 41.5453C6.91594 41.1145 5.0112 39.6284 4.00923 37.5949C3.24473 36.0426 3.26677 36.4072 3.29883 25.871L3.32689 16.5591L3.63149 15.7163C4.60841 13.0168 6.9961 11.1167 9.77356 10.8291C10.9589 10.7066 38.8517 10.6997 40.0601 10.8212V10.8222ZM9.51706 11.8884C6.37889 12.3419 4.35391 14.8942 4.35391 18.398V19.6954H11.0661L11.2915 19.2369C12.2845 17.2123 14.2844 15.0167 16.4357 13.5869C17.2402 13.0524 19.3614 11.9763 19.6109 11.9763C19.669 11.9763 19.7161 11.9328 19.7161 11.8795C19.7161 11.7609 10.3457 11.7678 9.51706 11.8874V11.8884ZM30.2839 11.8548C30.2839 11.9002 30.4492 11.9951 30.6506 12.0652C33.7206 13.1294 37.462 16.4702 38.7385 19.2863L38.9249 19.6964H45.6471V18.399C45.6471 15.1284 44.1341 12.9842 41.1462 12.0168C40.5581 11.8261 30.2849 11.674 30.2849 11.8558L30.2839 11.8548ZM24.0707 12.5178C12.6663 13.6156 7.13237 25.9748 14.0931 34.7976C21.7892 44.5512 37.8768 39.7015 38.8858 27.3236C39.5611 19.0343 32.2528 11.7313 24.0707 12.5178ZM26.6638 15.9455C33.2327 16.8753 37.3277 23.963 34.8278 30.0774C31.9482 37.1216 22.708 38.9279 17.4136 33.4804C10.3908 26.2544 16.5819 14.5187 26.6638 15.9455ZM23.8723 17.5719C17.9617 18.395 14.553 24.3474 16.8885 29.7701C19.5698 35.9942 28.5605 36.7659 32.376 31.1001C36.5512 24.9007 31.2949 16.5394 23.8723 17.5719ZM27.7168 18.9098C28.8581 19.2596 29.7118 20.0768 29.7318 20.8366C29.7779 22.5886 26.2289 22.5332 25.0416 20.7635C24.1388 19.4187 25.747 18.3051 27.7168 18.9098ZM22.701 32.2552C23.7821 32.4805 25.3923 33.4557 25.3923 33.8846C25.3923 34.8865 21.7581 34.2393 20.697 33.0486C19.9636 32.2246 20.8564 31.8708 22.701 32.2552ZM41.9128 35.9991C39.8938 36.6167 40.2846 39.3863 42.3897 39.3794C44.5309 39.3725 44.6902 36.2629 42.564 35.9734C42.3486 35.9438 42.056 35.9556 41.9128 36.0001V35.9991Z"></path>
  </symbol>
  <symbol xmlns="http://www.w3.org/2000/svg" viewBox="0 0 32 32" id="inst">
    <path d="M17.36 2.66699C19.76 2.66699 20.267 2.69399 21.493 2.74699C22.906 2.81399 23.88 3.03999 24.72 3.37399C25.6 3.70699 26.347 4.17399 27.08 4.90699C27.827 5.63999 28.28 6.38699 28.627 7.26699C28.96 8.10699 29.174 9.07999 29.24 10.507C29.307 11.774 29.32 12.267 29.32 14.934V17.067C29.32 19.734 29.307 20.227 29.24 21.494C29.217 22.659 28.994 23.764 28.604 24.788L28.626 24.721C28.279 25.601 27.826 26.348 27.093 27.081C26.346 27.828 25.6 28.281 24.72 28.628C23.88 28.961 22.907 29.175 21.493 29.241C20.226 29.308 19.72 29.321 17.053 29.321H14.933C12.266 29.321 11.773 29.308 10.493 29.241C9.32796 29.218 8.22296 28.995 7.19896 28.605L7.26596 28.627C6.34296 28.274 5.55596 27.753 4.90696 27.094L4.90596 27.093C4.23996 26.441 3.71396 25.649 3.37396 24.764L3.35896 24.719C2.99196 23.763 2.76896 22.657 2.74596 21.502V21.492C2.69296 20.45 2.66296 19.229 2.66296 18.002C2.66296 17.776 2.66396 17.55 2.66596 17.325V17.359V14.626C2.66596 12.226 2.69296 11.719 2.74596 10.493C2.81296 9.07999 3.03896 8.10599 3.35896 7.26599C3.70596 6.38599 4.15896 5.63899 4.90596 4.90599C5.55096 4.23899 6.33996 3.71599 7.22296 3.38699L7.26596 3.37299C8.22096 3.00199 9.32596 2.77399 10.481 2.74699H10.493C11.72 2.69399 12.226 2.66699 14.626 2.66699H17.36ZM17.387 5.06699H14.6C12.293 5.06699 11.8 5.09399 10.6 5.14699C9.30696 5.19999 8.59996 5.41399 8.13296 5.59999C7.50596 5.83999 7.06596 6.13299 6.59996 6.59999C6.13396 7.06699 5.83996 7.50699 5.59996 8.13299C5.42696 8.59999 5.19996 9.30599 5.14696 10.613C5.09396 11.813 5.06696 12.293 5.06696 14.613V17.386C5.06696 19.706 5.09396 20.186 5.14696 21.386C5.19996 22.679 5.41396 23.386 5.59996 23.853C5.83996 24.48 6.13296 24.92 6.59996 25.386C7.06696 25.852 7.50696 26.146 8.13296 26.386C8.59996 26.573 9.30596 26.786 10.613 26.839C11.906 26.906 12.373 26.919 15.253 26.919H16.733C19.626 26.919 20.08 26.906 21.386 26.839C22.679 26.786 23.386 26.572 23.853 26.386C24.48 26.146 24.92 25.853 25.386 25.386C25.852 24.919 26.146 24.479 26.386 23.853C26.573 23.386 26.786 22.68 26.839 21.386C26.906 20.079 26.919 19.626 26.919 16.733V15.266C26.919 12.373 26.906 11.906 26.839 10.599C26.786 9.30599 26.572 8.59899 26.386 8.13199C26.16 7.53099 25.819 7.01799 25.387 6.59999L25.386 6.59899C24.966 6.16599 24.454 5.82499 23.881 5.60799L23.853 5.59899C23.121 5.32299 22.275 5.15799 21.391 5.14599H21.386C20.358 5.09399 19.155 5.06399 17.944 5.06399C17.748 5.06399 17.552 5.06499 17.356 5.06599H17.386L17.387 5.06699ZM16 9.14699C19.781 9.14699 22.847 12.212 22.847 15.994C22.847 19.776 19.782 22.841 16 22.841C12.219 22.841 9.15296 19.776 9.15296 15.994C9.15296 12.212 12.218 9.14699 16 9.14699V9.14699ZM16 11.547C13.544 11.547 11.553 13.538 11.553 15.994C11.553 18.45 13.544 20.441 16 20.441C18.456 20.441 20.447 18.45 20.447 15.994C20.447 13.538 18.456 11.547 16 11.547ZM23.107 7.27999C23.991 7.27999 24.707 7.99599 24.707 8.87999C24.707 9.76399 23.991 10.48 23.107 10.48C22.223 10.48 21.507 9.76399 21.507 8.87999C21.507 7.99599 22.223 7.27999 23.107 7.27999V7.27999Z"></path>
  </symbol>
</svg>